<?xml version="1.0" encoding="UTF-8" standalone="no"?>
<!DOCTYPE svg PUBLIC "-//W3C//DTD SVG 1.1//EN" "http://www.w3.org/Graphics/SVG/1.1/DTD/svg11.dtd">
<svg width="100%" height="100%" viewBox="0 0 507 97" version="1.1" xmlns="http://www.w3.org/2000/svg" xmlns:xlink="http://www.w3.org/1999/xlink" xml:space="preserve" xmlns:serif="http://www.serif.com/" style="fill-rule:evenodd;clip-rule:evenodd;stroke-linecap:round;stroke-linejoin:round;stroke-miterlimit:1.5;">
    <g transform="matrix(1,0,0,1,-16243.223691,-513.415)">
        <g transform="matrix(1,0,0,1,16099.210014,402.343235)">
            <g transform="matrix(0.686326,0,0,0.686326,-839.107776,-23.578946)">
                <g transform="matrix(0.214713,0,0,0.175187,1401.710859,170.650767)">
                    <g>
                        <g transform="matrix(552.834356,0,0,552.834356,1210,745)">
                            <path d="M0.37,0.012C0.573,0.012 0.7,-0.128 0.7,-0.352L0.7,-0.353C0.7,-0.576 0.573,-0.716 0.37,-0.716C0.167,-0.716 0.04,-0.577 0.04,-0.353L0.04,-0.352C0.04,-0.128 0.167,0.012 0.37,0.012ZM0.37,-0.085C0.236,-0.085 0.151,-0.188 0.151,-0.352L0.151,-0.353C0.151,-0.517 0.236,-0.62 0.37,-0.62C0.503,-0.62 0.588,-0.517 0.588,-0.353L0.588,-0.352C0.588,-0.189 0.505,-0.085 0.37,-0.085Z" style="fill:white;fill-rule:nonzero;"/>
                        </g>
                        <g transform="matrix(552.834356,0,0,552.834356,1618.417178,745)">
                            <path d="M0.052,-0L0.158,-0L0.158,-0.317C0.158,-0.384 0.202,-0.433 0.265,-0.433C0.324,-0.433 0.362,-0.395 0.362,-0.335L0.362,-0L0.465,-0L0.465,-0.321C0.465,-0.386 0.509,-0.433 0.571,-0.433C0.634,-0.433 0.669,-0.395 0.669,-0.328L0.669,-0L0.775,-0L0.775,-0.353C0.775,-0.456 0.709,-0.523 0.607,-0.523C0.534,-0.523 0.474,-0.485 0.447,-0.422L0.445,-0.422C0.424,-0.487 0.373,-0.523 0.302,-0.523C0.234,-0.523 0.182,-0.488 0.16,-0.434L0.158,-0.434L0.158,-0.514L0.052,-0.514L0.052,-0Z" style="fill:white;fill-rule:nonzero;"/>
                        </g>
                        <g transform="matrix(552.834356,0,0,552.834356,2074.343558,745)">
                            <path d="M0.052,-0L0.158,-0L0.158,-0.299C0.158,-0.379 0.206,-0.433 0.28,-0.433C0.353,-0.433 0.389,-0.39 0.389,-0.312L0.389,-0L0.495,-0L0.495,-0.333C0.495,-0.451 0.43,-0.523 0.317,-0.523C0.24,-0.523 0.187,-0.488 0.16,-0.436L0.158,-0.436L0.158,-0.514L0.052,-0.514L0.052,-0Z" style="fill:white;fill-rule:nonzero;"/>
                        </g>
                        <g transform="matrix(552.834356,0,0,552.834356,2375.325153,745)">
                            <path d="M0.109,-0.593C0.144,-0.593 0.171,-0.62 0.171,-0.653C0.171,-0.687 0.144,-0.714 0.109,-0.714C0.075,-0.714 0.048,-0.687 0.048,-0.653C0.048,-0.62 0.075,-0.593 0.109,-0.593ZM0.057,-0L0.162,-0L0.162,-0.514L0.057,-0.514L0.057,-0Z" style="fill:white;fill-rule:nonzero;"/>
                        </g>
                        <g transform="matrix(552.834356,0,0,552.834356,2496.257669,745)">
                            <path d="M0.244,0.01C0.318,0.01 0.375,-0.027 0.405,-0.087L0.407,-0.087L0.407,-0L0.513,-0L0.513,-0.705L0.407,-0.705L0.407,-0.426L0.405,-0.426C0.375,-0.487 0.316,-0.523 0.243,-0.523C0.114,-0.523 0.029,-0.421 0.029,-0.257L0.029,-0.257C0.029,-0.093 0.113,0.01 0.244,0.01ZM0.272,-0.081C0.188,-0.081 0.137,-0.147 0.137,-0.257L0.137,-0.257C0.137,-0.366 0.189,-0.433 0.272,-0.433C0.351,-0.433 0.408,-0.364 0.408,-0.257L0.408,-0.257C0.408,-0.15 0.352,-0.081 0.272,-0.081Z" style="fill:white;fill-rule:nonzero;"/>
                        </g>
                        <g transform="matrix(552.834356,0,0,552.834356,2810.736196,745)">
                            <path d="M0.052,-0L0.158,-0L0.158,-0.306C0.158,-0.383 0.2,-0.427 0.268,-0.427C0.288,-0.427 0.307,-0.425 0.315,-0.421L0.315,-0.52C0.307,-0.521 0.293,-0.523 0.278,-0.523C0.22,-0.523 0.177,-0.486 0.16,-0.426L0.158,-0.426L0.158,-0.514L0.052,-0.514L0.052,-0Z" style="fill:white;fill-rule:nonzero;"/>
                        </g>
                        <g transform="matrix(552.834356,0,0,552.834356,2979.98773,745)">
                            <path d="M0.273,0.01C0.42,0.01 0.517,-0.091 0.517,-0.257L0.517,-0.258C0.517,-0.422 0.419,-0.523 0.272,-0.523C0.126,-0.523 0.029,-0.422 0.029,-0.258L0.029,-0.257C0.029,-0.092 0.125,0.01 0.273,0.01ZM0.273,-0.078C0.191,-0.078 0.137,-0.143 0.137,-0.257L0.137,-0.258C0.137,-0.37 0.191,-0.435 0.272,-0.435C0.355,-0.435 0.409,-0.37 0.409,-0.258L0.409,-0.257C0.409,-0.144 0.356,-0.078 0.273,-0.078Z" style="fill:white;fill-rule:nonzero;"/>
                        </g>
                        <g transform="matrix(552.834356,0,0,552.834356,3281.779141,745)">
                            <path d="M0.052,0.171L0.158,0.171L0.158,-0.086L0.16,-0.086C0.19,-0.027 0.25,0.01 0.322,0.01C0.451,0.01 0.536,-0.093 0.536,-0.256L0.536,-0.257C0.536,-0.421 0.452,-0.523 0.321,-0.523C0.248,-0.523 0.191,-0.486 0.16,-0.425L0.158,-0.425L0.158,-0.514L0.052,-0.514L0.052,0.171ZM0.293,-0.081C0.214,-0.081 0.157,-0.15 0.157,-0.256L0.157,-0.257C0.157,-0.364 0.213,-0.433 0.293,-0.433C0.376,-0.433 0.428,-0.366 0.428,-0.257L0.428,-0.256C0.428,-0.148 0.376,-0.081 0.293,-0.081Z" style="fill:white;fill-rule:nonzero;"/>
                        </g>
                    </g>
                </g>
                <g transform="matrix(0,-0.74892,0.810754,0,805.812649,3403.954191)">
                    <circle cx="4189.5" cy="865.5" r="79.5" style="fill:none;stroke:white;stroke-width:27.23px;"/>
                </g>
                <g transform="matrix(0,0.842845,-0.912434,0,1811.313248,-3152.528409)">
                    <path d="M4125.752,303.613L3989.248,303.613C3988.418,299.292 3988,294.901 3988,290.5C3988,252.142 4019.142,221 4057.5,221C4095.858,221 4127,252.142 4127,290.5C4127,294.901 4126.582,299.292 4125.752,303.613Z" style="fill:none;stroke:white;stroke-opacity:0.58;stroke-width:24.19px;"/>
                </g>
            </g>
        </g>
    </g>
</svg>
